<svg width="24" height="24" viewBox="0 0 24 24" fill="none" xmlns="http://www.w3.org/2000/svg">
<path fill-rule="evenodd" clip-rule="evenodd" fill="#222222" d="M20.5618 20.0271V4.67491C20.5618 4.02603 20.0358 3.5 19.3869 3.5C18.7381 3.5 18.212 4.02603 18.212 4.67491V20.0271C18.212 20.676 18.738 21.2021 19.3869 21.2021C20.0358 21.2021 20.5618 20.676 20.5618 20.0271ZM19.3869 2C17.9096 2 16.712 3.1976 16.712 4.67491V20.0271C16.712 21.5045 17.9096 22.7021 19.3869 22.7021C20.8642 22.7021 22.0618 21.5045 22.0618 20.0271V4.67491C22.0618 3.1976 20.8642 2 19.3869 2ZM13.2058 20.0271V8.12526C13.2058 7.47637 12.6798 6.95034 12.0309 6.95034C11.382 6.95034 10.856 7.47637 10.856 8.12525V20.0271C10.856 20.676 11.382 21.2021 12.0309 21.2021C12.6798 21.2021 13.2058 20.676 13.2058 20.0271ZM12.0309 5.45034C10.5536 5.45034 9.35601 6.64794 9.35601 8.12525V20.0271C9.35601 21.5045 10.5536 22.7021 12.0309 22.7021C13.5082 22.7021 14.7058 21.5045 14.7058 20.0271V8.12526C14.7058 6.64794 13.5082 5.45034 12.0309 5.45034ZM4.67491 10.9709C3.1976 10.9709 2 12.1685 2 13.6458V20.0271C2 21.5045 3.1976 22.7021 4.67491 22.7021C6.15223 22.7021 7.34983 21.5045 7.34983 20.0271V13.6458C7.34983 12.1685 6.15223 10.9709 4.67491 10.9709Z"/>
</svg>
